<?xml version="1.0" encoding="UTF-8"?>
<svg id="Layer_2" data-name="Layer 2" xmlns="http://www.w3.org/2000/svg" viewBox="0 0 141.69 141.69">
  <defs>
    <style>
      .cls-1 {
        fill: #fff;
      }

      .cls-2 {
        fill: #111d5e;
      }
    </style>
  </defs>
  <g id="OBJECTS">
    <g>
      <rect class="cls-2" width="141.69" height="141.69" rx="35.03" ry="35.03"/>
      <path class="cls-1" d="M89.03,70.85l27.13-39.84c.58-.86.64-1.96.16-2.88-.48-.91-1.43-1.49-2.47-1.49h-29.61c-.92,0-1.79.46-2.31,1.22l-11.08,16.28-11.09-16.28c-.52-.76-1.38-1.22-2.31-1.22h-29.6c-1.03,0-1.99.57-2.47,1.49-.48.91-.42,2.02.16,2.88l27.12,39.84-27.12,39.84c-.87,1.28-.54,3.01.74,3.88,1.28.87,3.01.54,3.88-.74l25.88-38.02,11.42,16.78-12.32,18.1c-.87,1.28-.54,3.01.74,3.88.48.33,1.03.48,1.57.48.89,0,1.77-.43,2.31-1.22l11.09-16.28,11.08,16.28c.52.76,1.38,1.22,2.31,1.22h29.61c1.03,0,1.99-.57,2.47-1.49.48-.92.42-2.02-.16-2.88l-27.13-39.84ZM85.71,32.22h22.85l-22.92,33.66-11.42-16.78,11.49-16.88Z"/>
    </g>
  </g>
</svg>