<?xml version="1.0" encoding="UTF-8"?>
<svg id="Layer_2" data-name="Layer 2" xmlns="http://www.w3.org/2000/svg" viewBox="0 0 557.92 141.69">
  <defs>
    <style>
      .cls-1 {
        fill: #fff;
      }

      .cls-2 {
        fill: #111d5e;
      }
    </style>
  </defs>
  <g id="OBJECTS">
    <g>
      <rect class="cls-2" x="452.99" y="23.1" width="18.08" height="18.08" rx="4" ry="4"/>
      <g>
        <path class="cls-2" d="M536.19,84.63l21.35-31.35c.46-.67.51-1.54.13-2.27-.38-.72-1.13-1.17-1.94-1.17h-23.3c-.73,0-1.41.36-1.82.96l-8.72,12.81-8.72-12.81c-.41-.6-1.09-.96-1.82-.96h-23.29c-.81,0-1.56.45-1.94,1.17-.38.72-.33,1.59.13,2.26l21.34,31.35-21.34,31.35c-.68,1-.42,2.37.58,3.05,1.01.68,2.37.42,3.05-.58l20.37-29.92,8.99,13.2-9.7,14.24c-.68,1-.42,2.37.58,3.05.38.26.81.38,1.24.38.7,0,1.39-.34,1.82-.96l8.72-12.81,8.72,12.81c.41.6,1.09.96,1.82.96h23.3c.81,0,1.56-.45,1.94-1.17.38-.72.33-1.59-.13-2.27l-21.35-31.35ZM533.59,54.24h17.98l-18.03,26.49-8.99-13.2,9.04-13.28Z"/>
        <path class="cls-2" d="M255.81,78.74c-.98-1.68-2.41-3.32-4.28-4.91-1.87-1.59-3.53-2.85-4.98-3.79-1.45-.93-3.5-1.94-6.17-3.01-2.66-1.07-4.77-1.87-6.31-2.38-1.54-.51-3.81-1.24-6.8-2.17-7.29-2.24-12.22-4.32-14.79-6.24-2.57-1.91-3.86-4.42-3.86-7.5,0-2.9,1.14-5.26,3.43-7.08,2.29-1.82,5.44-2.73,9.46-2.73,8.6,0,14.86,4.21,18.79,12.62l16.26-9.39c-3.36-6.92-8.06-12.31-14.09-16.19-6.03-3.88-13.02-5.82-20.96-5.82-8.88,0-16.47,2.64-22.78,7.92-6.31,5.28-9.46,12.36-9.46,21.24,0,4.49.79,8.41,2.38,11.78,1.59,3.36,3.9,6.15,6.94,8.34,3.04,2.2,6.07,3.95,9.11,5.26,3.04,1.31,6.75,2.62,11.15,3.93,7.94,2.24,13.46,4.32,16.54,6.24,3.08,1.92,4.63,4.6,4.63,8.06,0,2.99-1.26,5.47-3.79,7.43-2.52,1.96-6.5,2.94-11.92,2.94-11.22,0-18.74-5-22.57-15l-16.54,9.67c2.71,7.48,7.38,13.39,14.02,17.73,6.63,4.35,14.81,6.52,24.53,6.52,10.56,0,19.14-2.66,25.73-7.99,6.59-5.33,9.88-12.52,9.88-21.59,0-2.8-.35-5.4-1.05-7.78-.7-2.38-1.54-4.42-2.52-6.1Z"/>
        <path class="cls-2" d="M293.31,30.51l-18.09,5.47v14.16h-12.2v17.38h12.2v29.16c0,9.63,2.55,16.31,7.64,20.05,5.09,3.74,13.85,4.91,26.29,3.5v-16.4c-3.46.19-6.36.21-8.69.07-2.34-.14-4.11-.77-5.33-1.89-1.22-1.12-1.82-2.9-1.82-5.33v-29.16h15.84v-17.38h-15.84v-19.63Z"/>
        <path class="cls-2" d="M421.17,62.19v-12.06h-18.09v70.1h18.09v-33.51c0-6.73,2.17-11.54,6.52-14.44,4.35-2.9,9.27-4.02,14.79-3.36v-20.19c-4.77,0-9.09,1.12-12.97,3.36-3.88,2.24-6.66,5.61-8.34,10.09Z"/>
        <rect class="cls-2" x="452.99" y="50.14" width="18.08" height="70.1"/>
        <path class="cls-2" d="M353.24,48.18c-20.44,0-37.01,16.57-37.01,37.01s16.58,37.01,37.01,37.01,37.01-16.58,37.01-37.01-16.57-37.01-37.01-37.01ZM353.24,104.42c-10.62,0-19.23-8.61-19.23-19.23s8.61-19.24,19.23-19.24,19.23,8.61,19.23,19.24-8.61,19.23-19.23,19.23Z"/>
      </g>
      <rect class="cls-2" x="275.22" y="30.07" width="18.06" height="8.51"/>
      <g>
        <rect class="cls-2" width="141.69" height="141.69" rx="35.03" ry="35.03"/>
        <path class="cls-1" d="M89.03,70.85l27.13-39.84c.58-.86.64-1.96.16-2.88-.48-.91-1.43-1.49-2.47-1.49h-29.61c-.92,0-1.79.46-2.31,1.22l-11.08,16.28-11.09-16.28c-.52-.76-1.38-1.22-2.31-1.22h-29.6c-1.03,0-1.99.57-2.47,1.49-.48.91-.42,2.02.16,2.88l27.12,39.84-27.12,39.84c-.87,1.28-.54,3.01.74,3.88,1.28.87,3.01.54,3.88-.74l25.88-38.02,11.42,16.78-12.32,18.1c-.87,1.28-.54,3.01.74,3.88.48.33,1.03.48,1.57.48.89,0,1.77-.43,2.31-1.22l11.09-16.28,11.08,16.28c.52.76,1.38,1.22,2.31,1.22h29.61c1.03,0,1.99-.57,2.47-1.49.48-.92.42-2.02-.16-2.88l-27.13-39.84ZM85.71,32.22h22.85l-22.92,33.66-11.42-16.78,11.49-16.88Z"/>
      </g>
    </g>
  </g>
</svg>